<svg width="37" height="22" viewBox="0 0 37 22" fill="none" xmlns="http://www.w3.org/2000/svg">
<path d="M5.28564 1.99891C5.28564 0.894941 6.17643 0 7.27528 0H10.5714V3.29783C10.5714 4.4018 9.68057 5.29674 8.58172 5.29674H5.28564V1.99891Z" fill="white"/>
<path d="M4.53052 2.75599C4.53052 1.65202 3.63973 0.75708 2.54088 0.75708H-9.44138e-05V3.29824C-9.44138e-05 4.4022 0.890696 5.29714 1.98954 5.29714H4.53052V2.75599Z" fill="white"/>
<path d="M0 8.05237C0 6.94841 0.89079 6.05347 1.98963 6.05347H4.53061V8.59463C4.53061 9.69859 3.63982 10.5935 2.54098 10.5935H0V8.05237Z" fill="white"/>
<path d="M7.9285 6.05347H5.28564L8.6836 15.8903H11.3265L13.2142 9.45851L15.102 15.8903H17.7448L20.7652 6.05347H18.4999L16.2346 12.8636L14.3469 6.05347H12.0816L10.1938 12.4852L7.9285 6.05347Z" fill="white"/>
<path d="M23.7856 8.3235H21.5203V15.8903H23.7856V8.3235Z" fill="white"/>
<path d="M27.9387 6.05347H26.051H25.6734V15.8903H27.9387V13.6202L28.6938 12.8636L30.9591 15.8903H33.602L30.204 11.3502L33.602 8.3235H30.9591L27.9387 10.9719V6.05347Z" fill="white"/>
<path d="M36.6224 8.3235H34.3571V15.8903H36.6224V8.3235Z" fill="white"/>
<ellipse cx="22.653" cy="6.05339" rx="1.5102" ry="1.51335" fill="white"/>
<ellipse cx="35.4897" cy="6.05339" rx="1.5102" ry="1.51335" fill="white"/>
<path d="M1.94228 21.9288H0.755127L2.56401 16.7182H3.99166L5.79798 21.9288H4.61083L4.22193 20.7406H2.33118L1.94228 21.9288ZM2.61262 19.8806H3.94305L3.2983 17.9089H3.25737L2.61262 19.8806Z" fill="white"/>
<path d="M9.65688 18.4024C9.58695 18.1582 9.45732 17.9674 9.26799 17.83C9.08036 17.6909 8.84412 17.6214 8.55927 17.6214C8.15844 17.6214 7.8335 17.7689 7.58448 18.0641C7.33715 18.3575 7.21349 18.7756 7.21349 19.3184C7.21349 19.8628 7.33545 20.2835 7.57936 20.5803C7.82327 20.8771 8.15332 21.0256 8.56951 21.0256C8.93794 21.0256 9.22705 20.9306 9.43685 20.7406C9.64835 20.5489 9.75752 20.292 9.76434 19.9697H8.63859V19.1403H10.8312V19.7967C10.8312 20.253 10.734 20.6465 10.5396 20.9772C10.3451 21.3063 10.0773 21.559 9.7362 21.7354C9.39676 21.9118 9.00616 22 8.56439 22C8.07315 22 7.64162 21.8923 7.26978 21.6769C6.89794 21.4598 6.60797 21.1519 6.39988 20.7533C6.19349 20.353 6.09029 19.8781 6.09029 19.3285C6.09029 18.7654 6.19861 18.2837 6.41523 17.8834C6.63185 17.4831 6.92523 17.177 7.29536 16.9649C7.66549 16.7529 8.08083 16.6469 8.54136 16.6469C8.93708 16.6469 9.29528 16.7215 9.61595 16.8708C9.93661 17.0201 10.1993 17.227 10.404 17.4916C10.6087 17.7545 10.7349 18.0581 10.7826 18.4024H9.65688Z" fill="white"/>
<path d="M11.6634 21.9288V16.7182H13.7307C14.326 16.7182 14.7874 16.8725 15.1149 17.1812C15.4441 17.4899 15.6087 17.9029 15.6087 18.4203C15.6087 18.7764 15.5285 19.0809 15.3682 19.3336C15.2095 19.5864 14.981 19.7763 14.6825 19.9035L15.7954 21.9288H14.5725L13.5797 20.0816H12.7712V21.9288H11.6634ZM12.7712 19.1962H13.5235C14.1529 19.1962 14.4676 18.9376 14.4676 18.4203C14.4676 17.886 14.1511 17.6188 13.5183 17.6188H12.7712V19.1962Z" fill="white"/>
<path d="M17.2947 21.9288H16.1076L17.9164 16.7182H19.3441L21.1504 21.9288H19.9633L19.5744 20.7406H17.6836L17.2947 21.9288ZM17.9651 19.8806H19.2955L18.6507 17.9089H18.6098L17.9651 19.8806Z" fill="white"/>
<path d="M21.7811 21.9288V16.7182H23.8484C24.4437 16.7182 24.9051 16.8725 25.2326 17.1812C25.5618 17.4899 25.7263 17.9029 25.7263 18.4203C25.7263 18.7764 25.6462 19.0809 25.4858 19.3336C25.3272 19.5864 25.0987 19.7763 24.8002 19.9035L25.9131 21.9288H24.6901L23.6974 20.0816H22.8889V21.9288H21.7811ZM22.8889 19.1962H23.6411C24.2705 19.1962 24.5852 18.9376 24.5852 18.4203C24.5852 17.886 24.2688 17.6188 23.636 17.6188H22.8889V19.1962Z" fill="white"/>
<path d="M30.892 16.7182V21.9288H29.9351L27.6555 18.6492H27.6171V21.9288H26.5093V16.7182H27.4815L29.7432 19.9951H29.7893V16.7182H30.892Z" fill="white"/>
<path d="M36.6225 19.3235C36.6225 19.8917 36.5142 20.3751 36.2975 20.7737C36.0826 21.1723 35.7901 21.4767 35.42 21.6871C35.0498 21.8957 34.6328 22 34.1688 22C33.7032 22 33.2853 21.8948 32.9152 21.6845C32.545 21.4742 32.2525 21.1697 32.0376 20.7711C31.8227 20.3708 31.7152 19.8883 31.7152 19.3235C31.7152 18.7552 31.8227 18.2718 32.0376 17.8732C32.2525 17.4746 32.545 17.171 32.9152 16.9624C33.2853 16.7521 33.7032 16.6469 34.1688 16.6469C34.6328 16.6469 35.0498 16.7521 35.42 16.9624C35.7901 17.171 36.0826 17.4746 36.2975 17.8732C36.5142 18.2718 36.6225 18.7552 36.6225 19.3235ZM35.4993 19.3235C35.4993 18.7705 35.3782 18.349 35.136 18.059C34.8938 17.7672 34.5714 17.6214 34.1688 17.6214C33.7663 17.6214 33.4439 17.7672 33.2017 18.059C32.9595 18.349 32.8384 18.7705 32.8384 19.3235C32.8384 19.8747 32.9595 20.2962 33.2017 20.5879C33.4439 20.8797 33.7663 21.0256 34.1688 21.0256C34.5714 21.0256 34.8938 20.8797 35.136 20.5879C35.3782 20.2962 35.4993 19.8747 35.4993 19.3235Z" fill="white"/>
</svg>
