<svg width="90" height="22" viewBox="0 0 90 22" fill="none" xmlns="http://www.w3.org/2000/svg">
<path d="M28.5632 17.2033H25.3142V15.6245H30.9826C31.3234 19.3223 28.9642 21.9949 25.404 21.9949C22.0061 21.9949 19.5581 19.6185 19.5581 16.3373C19.5581 13.0562 22.0071 10.6798 25.404 10.6798C27.955 10.6798 30.0632 12.2392 30.5234 14.4215L28.2091 14.8229C27.8826 13.6648 26.7101 12.8182 25.3897 12.8182C23.451 12.8182 22.051 14.2888 22.051 16.3373C22.051 18.3859 23.4795 19.8564 25.4632 19.8564C27.1683 19.8615 28.5336 18.7035 28.5632 17.2033Z" fill="white"/>
<path d="M35.4194 21.6283H32.9265V11.0557H38.0459C40.4949 11.0557 42.2 12.5109 42.2 14.6197C42.2 16.0494 41.2653 17.233 39.8847 17.6833L42.4357 21.6334H39.6479L37.5704 18.0101H35.4194V21.6283ZM35.4194 12.9418V16.2526H37.6449C38.8173 16.2526 39.7071 15.599 39.7071 14.6187C39.7071 13.5495 38.8163 12.9408 37.6449 12.9408L35.4194 12.9418Z" fill="white"/>
<path d="M46.0438 21.6283H43.4172L46.9632 11.0557H50.5836L54.1152 21.6283H51.504L50.9254 19.8759H46.6223L46.0438 21.6283ZM47.1121 18.0939H50.4356L48.7754 13.1941L47.1121 18.0939Z" fill="white"/>
<path d="M58.0776 21.6283H55.5847V11.0557H60.7041C63.1531 11.0557 64.8582 12.5109 64.8582 14.6197C64.8582 16.0494 63.9235 17.233 62.5429 17.6833L65.0939 21.6334H62.3061L60.2286 18.0101H58.0776V21.6283ZM58.0776 12.9418V16.2526H60.3061C61.4786 16.2526 62.3684 15.599 62.3684 14.6187C62.3684 13.5495 61.4776 12.9408 60.3061 12.9408L58.0776 12.9418Z" fill="white"/>
<path d="M73.999 18.6137V11.0567H76.3735V21.6283H73.6286L69.3705 14.0846V21.6283H67.0103V11.0557H69.7551L73.999 18.6137Z" fill="white"/>
<path d="M78.2734 16.3394C78.2734 12.998 80.6479 10.6819 84.1194 10.6819C87.5908 10.6819 89.9653 12.998 89.9653 16.3394C89.9653 19.6808 87.5765 21.9969 84.1194 21.9969C80.6622 21.9969 78.2734 19.6982 78.2734 16.3394ZM80.7663 16.3394C80.7663 18.4033 82.1459 19.8442 84.1194 19.8585C86.0928 19.8728 87.4724 18.4033 87.4724 16.3394C87.4724 14.2755 86.0928 12.8203 84.1194 12.8203C82.1459 12.8203 80.7663 14.2776 80.7663 16.3394Z" fill="white"/>
<path d="M20.4142 6.981C20.6211 6.77383 20.8847 6.63274 21.1717 6.57561C21.4588 6.51848 21.7563 6.54787 22.0266 6.66006C22.2969 6.77225 22.5279 6.9622 22.6902 7.20585C22.8526 7.4495 22.9391 7.73589 22.9387 8.02876C22.938 8.27163 22.8776 8.51058 22.7627 8.7245C22.6478 8.93842 22.482 9.12074 22.28 9.25533C22.078 9.38992 21.846 9.47264 21.6045 9.49619C21.3629 9.51974 21.1193 9.4834 20.8952 9.39036C20.671 9.29732 20.4732 9.15046 20.3192 8.96276C20.1652 8.77505 20.0598 8.55228 20.0123 8.31412C19.9647 8.07596 19.9765 7.82975 20.0466 7.59724C20.1168 7.36473 20.243 7.15308 20.4142 6.981ZM22.1051 7.35272C21.9333 7.18339 21.7018 7.08849 21.4607 7.08849C21.2195 7.08849 20.9881 7.18339 20.8163 7.35272C20.6496 7.53877 20.5574 7.77987 20.5574 8.02978C20.5574 8.27969 20.6496 8.5208 20.8163 8.70685C20.9893 8.87546 21.2212 8.96982 21.4627 8.96982C21.7042 8.96982 21.9361 8.87546 22.1091 8.70685C22.2763 8.52101 22.3688 8.27982 22.3688 8.02978C22.3688 7.77975 22.2763 7.53856 22.1091 7.35272H22.1051Z" fill="white"/>
<path d="M25.8399 9.48093H25.2675V8.29019H24.145V9.48093H23.5715V6.5766H24.144V7.75099H25.2664V6.5766H25.8389L25.8399 9.48093Z" fill="white"/>
<path d="M27.7714 7.62641L27.05 9.48093H26.4153L27.6092 6.5766H27.9449L29.1224 9.48093H28.4888L27.7714 7.62641Z" fill="white"/>
<path d="M30.3203 8.94888L30.1162 9.47991H29.4795L30.6734 6.5766H31.0091L32.1866 9.48093H31.553L31.3489 8.9499L30.3203 8.94888ZM30.8305 7.61313L30.5152 8.40559H31.1407L30.8305 7.61313Z" fill="white"/>
<path d="M35.0419 9.48092H34.4694V7.65091L33.0939 9.48092H32.7551V6.5766H33.3276V8.40559L34.7021 6.5766H35.0419V9.48092ZM34.3643 6.1916C34.2377 6.30634 34.0729 6.36989 33.9021 6.36989C33.7312 6.36989 33.5665 6.30634 33.4398 6.1916C33.3783 6.13463 33.3296 6.06516 33.297 5.98785C33.2645 5.91054 33.2488 5.82716 33.251 5.74329H33.6164C33.6157 5.77889 33.6227 5.81421 33.637 5.84683C33.6512 5.87945 33.6724 5.90858 33.699 5.93221C33.7544 5.98353 33.8277 6.01104 33.9031 6.0088C33.9784 6.01029 34.0514 5.98289 34.1072 5.93221C34.1343 5.90886 34.1559 5.87983 34.1705 5.84718C34.1852 5.81453 34.1924 5.77906 34.1919 5.74329H34.5521C34.5542 5.8269 34.5386 5.91002 34.5062 5.98713C34.4739 6.06424 34.4255 6.13359 34.3643 6.19058V6.1916Z" fill="white"/>
<path d="M38.0979 9.48093H37.5255V8.29019H36.403V9.48093H35.8306V6.5766H36.403V7.75099H37.5255V6.5766H38.0979V9.48093Z" fill="white"/>
<path d="M43.8183 9.48093H40.2856V6.5766H40.8581V8.94071H41.7663V6.5766H42.3387V8.94071H43.2469V6.5766H43.8193L43.8183 9.48093Z" fill="white"/>
<path d="M46.5082 9.48093L45.9113 8.54754C45.8651 8.47008 45.8061 8.40103 45.7368 8.3433C45.6711 8.30296 45.5944 8.28404 45.5174 8.28917H45.2521V9.48399H44.6797V6.5766H45.2521V7.73363H45.5011C45.576 7.73737 45.6503 7.71851 45.7144 7.67951C45.7848 7.62238 45.8446 7.55324 45.8909 7.47527L46.4634 6.57966H47.1103L46.4287 7.64683C46.3412 7.78422 46.227 7.90264 46.0929 7.99506C46.1977 8.04204 46.3151 8.16799 46.445 8.37291L47.1542 9.48093H46.5082Z" fill="white"/>
<path d="M47.8807 6.98097C48.0874 6.77274 48.3512 6.63072 48.6388 6.57298C48.9263 6.51524 49.2245 6.54439 49.4955 6.65671C49.7664 6.76902 49.9979 6.95944 50.1604 7.20376C50.323 7.44807 50.4092 7.73523 50.4082 8.02873C50.4075 8.2716 50.3471 8.51055 50.2322 8.72447C50.1173 8.93839 49.9515 9.12071 49.7495 9.2553C49.5475 9.38989 49.3155 9.47261 49.074 9.49616C48.8324 9.51971 48.5888 9.48337 48.3647 9.39033C48.1405 9.29729 47.9427 9.15043 47.7887 8.96273C47.6347 8.77502 47.5293 8.55225 47.4818 8.31409C47.4342 8.07593 47.446 7.82972 47.5161 7.59721C47.5862 7.3647 47.7125 7.15305 47.8837 6.98097H47.8807ZM49.5715 7.35269C49.3996 7.18275 49.1677 7.08745 48.9261 7.08745C48.6845 7.08745 48.4526 7.18275 48.2807 7.35269C48.1139 7.53874 48.0217 7.77984 48.0217 8.02975C48.0217 8.27966 48.1139 8.52077 48.2807 8.70682C48.4537 8.87543 48.6856 8.96979 48.9271 8.96979C49.1686 8.96979 49.4005 8.87543 49.5735 8.70682C49.7407 8.52098 49.8332 8.27979 49.8332 8.02975C49.8332 7.77972 49.7407 7.53853 49.5735 7.35269H49.5715Z" fill="white"/>
<path d="M51.9633 7.62641L51.2419 9.48093H50.6123L51.8062 6.5766H52.1419L53.3195 9.48093H52.6858L51.9633 7.62641Z" fill="white"/>
<path d="M54.5124 8.94886L54.3083 9.47989H53.6736L54.8675 6.57556H55.2042L56.3777 9.48091H55.744L55.5399 8.94988L54.5124 8.94886ZM55.0226 7.61311L54.7073 8.40558H55.3328L55.0226 7.61311Z" fill="white"/>
<path d="M58.9726 8.94886L58.7685 9.47989H58.1338L59.3277 6.57556H59.6634L60.8409 9.47989H60.2042L60.0001 8.94886H58.9726ZM59.4828 7.61312L59.1675 8.40558H59.796L59.4828 7.61312Z" fill="white"/>
<path d="M62.0234 7.1158V9.48093H61.4509V6.5766H63.3285V7.1158H62.0234Z" fill="white"/>
<path d="M63.9429 6.5766H64.898C65.2959 6.5766 65.6109 6.6811 65.8429 6.89011C65.9528 6.99327 66.0405 7.11791 66.1004 7.25632C66.1604 7.39473 66.1913 7.54398 66.1913 7.69483C66.1913 7.84568 66.1604 7.99492 66.1004 8.13333C66.0405 8.27175 65.9528 8.39639 65.8429 8.49954C65.6109 8.70855 65.2959 8.81306 64.898 8.81306H64.5163V9.48093H63.9439L63.9429 6.5766ZM64.5153 8.27181H64.9418C65.121 8.27857 65.2977 8.22776 65.4459 8.1268C65.5091 8.07409 65.56 8.00812 65.5949 7.93356C65.6298 7.859 65.6478 7.77767 65.6478 7.69534C65.6478 7.61301 65.6298 7.53168 65.5949 7.45712C65.56 7.38256 65.5091 7.31659 65.4459 7.26388C65.2992 7.16096 65.123 7.10863 64.9439 7.11478H64.5174L64.5153 8.27181Z" fill="white"/>
<path d="M67.102 6.981C67.3088 6.77383 67.5725 6.63274 67.8595 6.57561C68.1465 6.51848 68.444 6.54787 68.7143 6.66006C68.9846 6.77225 69.2156 6.9622 69.378 7.20585C69.5404 7.4495 69.6269 7.73589 69.6265 8.02876C69.6258 8.27163 69.5653 8.51058 69.4504 8.7245C69.3355 8.93842 69.1698 9.12074 68.9678 9.25533C68.7658 9.38992 68.5338 9.47264 68.2922 9.49619C68.0507 9.51974 67.8071 9.4834 67.5829 9.39036C67.3588 9.29732 67.1609 9.15046 67.007 8.96276C66.853 8.77505 66.7476 8.55228 66.7 8.31412C66.6525 8.07596 66.6643 7.82975 66.7344 7.59724C66.8045 7.36473 66.9307 7.15308 67.102 6.981ZM68.7928 7.35272C68.6209 7.18278 68.389 7.08748 68.1474 7.08748C67.9058 7.08748 67.6739 7.18278 67.502 7.35272C67.3353 7.53877 67.2431 7.77987 67.2431 8.02978C67.2431 8.27969 67.3353 8.5208 67.502 8.70685C67.675 8.87546 67.9069 8.96982 68.1484 8.96982C68.3899 8.96982 68.6219 8.87546 68.7949 8.70685C68.962 8.52101 69.0545 8.27982 69.0545 8.02978C69.0545 7.77975 68.962 7.53856 68.7949 7.35272H68.7928Z" fill="white"/>
<path d="M70.8735 7.64683H71.5531C71.8789 7.64683 72.1262 7.72921 72.2949 7.89396C72.3816 7.98183 72.4491 8.08673 72.4932 8.20204C72.5373 8.31735 72.557 8.44056 72.551 8.56388C72.5578 8.68698 72.5391 8.81015 72.4963 8.92574C72.4535 9.04133 72.3873 9.14688 72.3021 9.23584C72.1361 9.39923 71.8874 9.48093 71.5561 9.48093H70.3062V6.5766H72.2449V7.1158H70.8735V7.64683ZM70.8735 8.94071H71.5612C71.8572 8.94071 72.0051 8.81476 72.0051 8.56286C72.0051 8.31096 71.8572 8.18501 71.5612 8.18501H70.8735V8.94071Z" fill="white"/>
<path d="M75.4419 9.48093H74.8694V7.65091L73.4939 9.48093H73.1582V6.5766H73.7306V8.40559L75.1021 6.5766H75.4419V9.48093Z" fill="white"/>
<path d="M76.8928 7.71728H77.2581C77.3108 7.72259 77.364 7.71709 77.4146 7.70111C77.4651 7.68513 77.5118 7.65901 77.5519 7.62435C77.6085 7.5662 77.6397 7.48797 77.6387 7.40683C77.6387 7.19441 77.5026 7.08787 77.2305 7.08719H77.2101C77.0759 7.09064 76.9434 7.11724 76.8183 7.16582C76.6825 7.21226 76.5555 7.28131 76.4428 7.37006L76.0703 7.02591C76.2245 6.87986 76.4026 6.76138 76.5968 6.67564C76.7831 6.59078 76.9851 6.54623 77.1897 6.54492H77.2183C77.3536 6.54573 77.4883 6.56532 77.6183 6.60313C77.7192 6.63082 77.814 6.67724 77.8979 6.73997C77.9628 6.79301 78.018 6.85693 78.0611 6.9289C78.1012 6.99192 78.1311 7.06084 78.1499 7.13314C78.1651 7.19704 78.1726 7.26252 78.1723 7.32819C78.1755 7.47364 78.1385 7.61714 78.0652 7.74281C78.0005 7.85551 77.8999 7.94324 77.7795 7.99198C77.9227 8.02389 78.0489 8.10798 78.1336 8.22788C78.2231 8.35648 78.2692 8.51033 78.2652 8.667C78.2702 8.782 78.2496 8.89666 78.2047 9.00266C78.1599 9.10865 78.092 9.20331 78.006 9.27973C77.8332 9.43291 77.5611 9.51087 77.1897 9.51359H77.1601C76.942 9.51361 76.7267 9.46402 76.5305 9.36858C76.3331 9.2749 76.1556 9.14381 76.0081 8.98256L76.3815 8.63841C76.49 8.74221 76.6171 8.82466 76.756 8.88146C76.8899 8.94043 77.0342 8.97202 77.1805 8.97439H77.2019C77.5475 8.96894 77.7203 8.84742 77.7203 8.60982C77.7213 8.56319 77.7128 8.51686 77.6952 8.47366C77.6777 8.43045 77.6515 8.3913 77.6183 8.3586C77.5754 8.32164 77.5257 8.29358 77.4719 8.27604C77.4181 8.25851 77.3614 8.25186 77.305 8.25648H76.8866L76.8928 7.71728Z" fill="white"/>
<path d="M81.1458 9.48093H80.5734V8.29019H79.4509V9.48093H78.8774V6.5766H79.4499V7.75099H80.5723V6.5766H81.1448L81.1458 9.48093Z" fill="white"/>
<path d="M82.551 7.75099H83.8071V8.29019H82.551V8.94173H83.9112V9.48093H81.9785V6.5766H83.9101V7.1158H82.551V7.75099Z" fill="white"/>
<path d="M85.8918 6.54698C86.0981 6.54384 86.3026 6.58516 86.4916 6.66816C86.6805 6.75115 86.8493 6.87387 86.9867 7.02797L86.6132 7.37212C86.5182 7.27857 86.4054 7.20506 86.2815 7.15594C86.1575 7.10683 86.025 7.0831 85.8918 7.08618C85.7717 7.08312 85.6524 7.10515 85.5413 7.15087C85.4303 7.19659 85.33 7.26499 85.2469 7.3517C85.0801 7.53774 84.9879 7.77885 84.9879 8.02876C84.9879 8.27867 85.0801 8.51978 85.2469 8.70583C85.3303 8.79197 85.4307 8.85985 85.5417 8.9052C85.6527 8.95055 85.7719 8.97237 85.8918 8.9693C86.0252 8.9735 86.158 8.9503 86.2821 8.90112C86.4062 8.85194 86.5189 8.77783 86.6132 8.68336L86.9867 9.02751C86.8493 9.18161 86.6805 9.30433 86.4916 9.38732C86.3026 9.47032 86.0981 9.51165 85.8918 9.5085C85.6977 9.5085 85.5055 9.47017 85.3262 9.39571C85.1469 9.32124 84.984 9.2121 84.847 9.07455C84.7099 8.93699 84.6013 8.77372 84.5274 8.59409C84.4535 8.41446 84.4157 8.222 84.4163 8.02774C84.4157 7.83348 84.4535 7.64102 84.5274 7.46139C84.6013 7.28176 84.7099 7.11849 84.847 6.98093C84.984 6.84338 85.1469 6.73424 85.3262 6.65978C85.5055 6.58531 85.6977 6.54698 85.8918 6.54698Z" fill="white"/>
<path d="M88.1347 8.94886L87.9306 9.47989H87.2959L88.4898 6.57556H88.8255L90 9.48091H89.3663L89.1622 8.94988L88.1347 8.94886ZM88.6449 7.61311L88.3296 8.40558H88.9551L88.6449 7.61311Z" fill="white"/>
<path d="M8.04399 11.362C8.05011 11.073 7.87766 11.0689 7.66848 11.0699C6.22052 11.0699 4.77154 11.0566 3.32358 11.076C2.69693 11.0794 2.09553 11.3237 1.64386 11.7584C1.19218 12.1931 0.924802 12.785 0.897052 13.4116C0.805215 14.9618 0.984807 16.515 0.865419 18.0652C0.846031 18.3175 0.943991 18.4002 1.19603 18.3961C1.97868 18.3828 2.76236 18.3961 3.54297 18.3961C4.31134 18.3961 5.08073 18.4104 5.84807 18.3961C6.80113 18.3726 7.88889 17.4147 7.9746 16.4701C8.13174 14.7637 8.00828 13.0613 8.04399 11.362Z" fill="white"/>
<path d="M19.0429 0.00609258C16.8949 0.00609258 14.747 0.00609258 12.599 -3.46991e-05C10.899 -0.00718319 9.59185 1.44192 9.58369 3.13101C9.57451 5.11012 9.58369 7.08923 9.57349 9.06732C9.57349 9.40738 9.6541 9.53095 10.0143 9.52687C11.9174 9.51053 13.8204 9.52074 15.7286 9.51767C16.2765 9.51767 16.8184 9.4707 17.3102 9.19089C18.2163 8.68028 18.8959 7.99402 19.0092 6.89213C19.0396 6.73431 19.0598 6.57466 19.0694 6.41421C19.0776 4.3534 19.0813 2.29259 19.0806 0.231781V0.00609258H19.0429Z" fill="white"/>
</svg>
