<svg width="24" height="24" viewBox="0 0 24 24" fill="none" xmlns="http://www.w3.org/2000/svg">
<mask id="mask0" mask-type="alpha" maskUnits="userSpaceOnUse" x="3" y="3" width="18" height="18">
<rect x="3" y="3" width="18" height="18" rx="2" fill="#101820"/>
</mask>
<g mask="url(#mask0)">
<path fill-rule="evenodd" clip-rule="evenodd" d="M7 3C4.79086 3 3 4.79086 3 7V17C3 19.2091 4.79086 21 7 21H17C19.2091 21 21 19.2091 21 17V7C21 4.79086 19.2091 3 17 3H7ZM16.5084 7.11547C16.6482 7.05942 16.8073 7.00868 16.9807 7.001C17.1541 6.99333 17.3413 7.02867 17.5386 7.14648C17.7359 7.26429 17.8998 7.48879 17.9605 7.71884C18.0212 7.9489 18.0061 8.17464 17.9547 8.40807L17.9582 8.39376C17.9582 8.39376 16.3066 16.8314 16.2681 17.0329L16.2669 17.0341C16.2186 17.2839 16.1112 17.4682 15.9388 17.6482C15.7663 17.8283 15.4968 18 15.1559 18C14.5845 18 14.3377 17.6601 14.3061 17.6148L12.5809 15.9908L11.1721 17.2035L11.1593 17.213C11.1593 17.213 10.9592 17.3931 10.633 17.3931C10.557 17.3931 10.475 17.3759 10.3928 17.3501C10.3839 17.3483 10.3767 17.3472 10.3703 17.3462C10.3596 17.3445 10.3508 17.3432 10.34 17.3394C10.3341 17.3373 10.3286 17.3345 10.323 17.3316C10.3186 17.3293 10.3142 17.327 10.3095 17.3251L10.3236 17.3287C10.3212 17.3277 10.3187 17.327 10.3162 17.3264C10.3136 17.3257 10.311 17.325 10.3084 17.3239C10.2723 17.309 10.2365 17.2931 10.2041 17.2726C10.1196 17.2192 10.0508 17.1517 9.99309 17.0771C9.87774 16.9279 9.79468 16.7491 9.70946 16.4749H9.71063C9.60424 16.1329 9.19707 14.8928 9.0217 14.3587C8.99834 14.2875 8.9791 14.2289 8.96522 14.1866C8.63241 14.0511 7.23458 13.482 6.7665 13.2923V13.2935C6.62803 13.2374 6.46235 13.1622 6.29887 13.0013C6.13539 12.8404 6 12.5594 6 12.2835C6 11.9414 6.206 11.6287 6.39146 11.4845C6.55141 11.3602 6.69829 11.3044 6.76181 11.2803C6.77176 11.2765 6.77967 11.2735 6.78526 11.2711C7.10569 11.1339 7.50747 10.9619 7.96399 10.7664C9.21881 10.229 10.8872 9.51454 12.4168 8.86C13.4599 8.41367 14.4385 7.99583 15.177 7.68069C15.2522 7.64858 15.3246 7.61768 15.3941 7.58803C16.0065 7.32665 16.3924 7.16195 16.5084 7.11547ZM15.1078 16.7074C15.1992 16.2331 16.6787 8.67108 16.744 8.33772C16.5887 8.40297 16.2639 8.54058 15.6411 8.80634C14.9033 9.12119 13.925 9.5394 12.8821 9.98566C10.895 10.836 8.76132 11.7493 7.5166 12.2823C8.12157 12.5281 9.17419 12.9579 9.50422 13.0927C9.55594 13.1138 9.58991 13.1277 9.60163 13.1325C11.0391 12.3006 13.9621 10.6058 14.6484 10.1705C14.655 10.1663 14.6624 10.1615 14.6703 10.1563C14.727 10.1194 14.8135 10.0632 14.8793 10.0632C14.9627 10.0632 14.9988 10.1146 14.9988 10.186C14.9988 10.2397 14.9661 10.2939 14.8101 10.4483C14.6163 10.6412 11.3983 13.9553 11.3983 13.9553L10.9319 15.8107L12.6161 14.3619L15.1078 16.7074ZM15.0914 16.7944H15.0902C15.0897 16.7975 15.091 16.7941 15.0902 16.798L15.0914 16.7944Z" fill="#86909C"/>
</g>
</svg>
