<svg width="120" height="47" viewBox="0 0 120 47" fill="none" xmlns="http://www.w3.org/2000/svg">
<path d="M0 0H28.4615C40.3569 0 50 9.6431 50 21.5385V46.1538H21.5385C9.6431 46.1538 0 36.5107 0 24.6154V0Z" fill="#51C100"/>
<path d="M16.7778 20.0459C16.7778 20.7142 16.6155 21.3408 16.291 21.9256C15.9784 22.5104 15.4796 22.9818 14.7944 23.3399C14.1213 23.6979 13.2678 23.8769 12.234 23.8769H10.1244V28.6747H7.6001V16.179H12.234C13.2077 16.179 14.0371 16.3461 14.7223 16.6803C15.4075 17.0145 15.9183 17.4739 16.2549 18.0587C16.6035 18.6435 16.7778 19.3059 16.7778 20.0459ZM12.1258 21.854C12.823 21.854 13.3399 21.6988 13.6765 21.3885C14.0131 21.0663 14.1814 20.6187 14.1814 20.0459C14.1814 18.8285 13.4962 18.2199 12.1258 18.2199H10.1244V21.854H12.1258Z" fill="white"/>
<path d="M25.0612 28.6747L22.2844 23.8053H21.0944V28.6747H18.57V16.179H23.2941C24.2678 16.179 25.0972 16.3521 25.7824 16.6982C26.4676 17.0324 26.9784 17.4918 27.315 18.0766C27.6636 18.6495 27.8379 19.294 27.8379 20.0101C27.8379 20.8336 27.5975 21.5795 27.1167 22.2478C26.6359 22.9042 25.9206 23.3578 24.971 23.6084L27.9822 28.6747H25.0612ZM21.0944 21.9256H23.204C23.8892 21.9256 24.4 21.7645 24.7366 21.4422C25.0732 21.1081 25.2415 20.6486 25.2415 20.0638C25.2415 19.4909 25.0732 19.0493 24.7366 18.739C24.4 18.4168 23.8892 18.2557 23.204 18.2557H21.0944V21.9256Z" fill="white"/>
<path d="M35.9631 28.8C34.7851 28.8 33.7032 28.5255 32.7175 27.9765C31.7318 27.4275 30.9505 26.6697 30.3735 25.7029C29.7965 24.7243 29.508 23.6203 29.508 22.391C29.508 21.1737 29.7965 20.0817 30.3735 19.115C30.9505 18.1363 31.7318 17.3725 32.7175 16.8235C33.7032 16.2745 34.7851 16 35.9631 16C37.1531 16 38.235 16.2745 39.2086 16.8235C40.1943 17.3725 40.9696 18.1363 41.5346 19.115C42.1116 20.0817 42.4001 21.1737 42.4001 22.391C42.4001 23.6203 42.1116 24.7243 41.5346 25.7029C40.9696 26.6697 40.1943 27.4275 39.2086 27.9765C38.2229 28.5255 37.1411 28.8 35.9631 28.8ZM35.9631 26.5622C36.7204 26.5622 37.3875 26.3952 37.9645 26.061C38.5415 25.7149 38.9923 25.2255 39.3168 24.593C39.6414 23.9605 39.8036 23.2265 39.8036 22.391C39.8036 21.5556 39.6414 20.8276 39.3168 20.207C38.9923 19.5745 38.5415 19.0911 37.9645 18.7569C37.3875 18.4228 36.7204 18.2557 35.9631 18.2557C35.2058 18.2557 34.5326 18.4228 33.9436 18.7569C33.3666 19.0911 32.9159 19.5745 32.5913 20.207C32.2667 20.8276 32.1045 21.5556 32.1045 22.391C32.1045 23.2265 32.2667 23.9605 32.5913 24.593C32.9159 25.2255 33.3666 25.7149 33.9436 26.061C34.5326 26.3952 35.2058 26.5622 35.9631 26.5622Z" fill="white"/>
<path d="M62.9561 16.3134V18.3955H57.5941V21.6938H61.7031V23.7391H57.5941V29.1748H55.0144V16.3134H62.9561Z" fill="white"/>
<path d="M74.2748 23.8497C74.2748 24.2182 74.2503 24.5499 74.2011 24.8447H66.7385C66.7999 25.5817 67.0579 26.1591 67.5124 26.5768C67.9669 26.9944 68.5259 27.2032 69.1892 27.2032C70.1474 27.2032 70.8291 26.7917 71.2345 25.9687H74.0169C73.722 26.9514 73.157 27.7622 72.3217 28.4009C71.4863 29.0274 70.4606 29.3407 69.2445 29.3407C68.2617 29.3407 67.3773 29.1257 66.5911 28.6958C65.8172 28.2535 65.2091 27.6332 64.7669 26.8347C64.337 26.0363 64.122 25.1149 64.122 24.0708C64.122 23.0144 64.337 22.0869 64.7669 21.2884C65.1969 20.49 65.7988 19.8758 66.5727 19.4458C67.3466 19.0159 68.2372 18.8009 69.2445 18.8009C70.2149 18.8009 71.081 19.0097 71.8426 19.4274C72.6165 19.845 73.2123 20.4408 73.6299 21.2147C74.0599 21.9763 74.2748 22.8547 74.2748 23.8497ZM71.603 23.1126C71.5907 22.4493 71.3512 21.9211 70.8844 21.528C70.4176 21.1226 69.8464 20.9199 69.1708 20.9199C68.532 20.9199 67.9915 21.1165 67.5493 21.5095C67.1193 21.8904 66.8552 22.4247 66.7569 23.1126H71.603Z" fill="white"/>
<path d="M78.7374 20.5514C79.0691 20.0109 79.499 19.5871 80.0273 19.28C80.5678 18.9729 81.182 18.8193 81.8699 18.8193V21.528H81.1881C80.3774 21.528 79.7631 21.7184 79.3455 22.0992C78.9401 22.48 78.7374 23.1433 78.7374 24.0892V29.1748H76.1578V18.9667H78.7374V20.5514Z" fill="white"/>
<path d="M96.2846 18.8193C97.5376 18.8193 98.5449 19.2063 99.3065 19.9802C100.08 20.7418 100.467 21.8105 100.467 23.1863V29.1748H97.8877V23.5364C97.8877 22.738 97.685 22.1299 97.2797 21.7122C96.8743 21.2823 96.3215 21.0673 95.6213 21.0673C94.9211 21.0673 94.3622 21.2823 93.9445 21.7122C93.5391 22.1299 93.3364 22.738 93.3364 23.5364V29.1748H90.7568V23.5364C90.7568 22.738 90.5541 22.1299 90.1487 21.7122C89.7433 21.2823 89.1906 21.0673 88.4904 21.0673C87.7779 21.0673 87.2128 21.2823 86.7951 21.7122C86.3898 22.1299 86.1871 22.738 86.1871 23.5364V29.1748H83.6074V18.9667H86.1871V20.2013C86.5188 19.7713 86.9426 19.4335 87.4585 19.1878C87.9867 18.9422 88.5641 18.8193 89.1906 18.8193C89.989 18.8193 90.7015 18.9913 91.328 19.3353C91.9545 19.6669 92.4397 20.146 92.7837 20.7725C93.1153 20.1829 93.5944 19.7099 94.2209 19.3537C94.8597 18.9974 95.5476 18.8193 96.2846 18.8193Z" fill="white"/>
<path d="M112.405 23.8497C112.405 24.2182 112.38 24.5499 112.331 24.8447H104.869C104.93 25.5817 105.188 26.1591 105.642 26.5768C106.097 26.9944 106.656 27.2032 107.319 27.2032C108.277 27.2032 108.959 26.7917 109.365 25.9687H112.147C111.852 26.9514 111.287 27.7622 110.452 28.4009C109.616 29.0274 108.591 29.3407 107.374 29.3407C106.392 29.3407 105.507 29.1257 104.721 28.6958C103.947 28.2535 103.339 27.6332 102.897 26.8347C102.467 26.0363 102.252 25.1149 102.252 24.0708C102.252 23.0144 102.467 22.0869 102.897 21.2884C103.327 20.49 103.929 19.8758 104.703 19.4458C105.477 19.0159 106.367 18.8009 107.374 18.8009C108.345 18.8009 109.211 19.0097 109.973 19.4274C110.746 19.845 111.342 20.4408 111.76 21.2147C112.19 21.9763 112.405 22.8547 112.405 23.8497ZM109.733 23.1126C109.721 22.4493 109.481 21.9211 109.014 21.528C108.548 21.1226 107.976 20.9199 107.301 20.9199C106.662 20.9199 106.122 21.1165 105.679 21.5095C105.249 21.8904 104.985 22.4247 104.887 23.1126H109.733Z" fill="white"/>
<path d="M116.867 20.5514C117.199 20.0109 117.629 19.5871 118.157 19.28C118.698 18.9729 119.312 18.8193 120 18.8193V21.528H119.318C118.507 21.528 117.893 21.7184 117.476 22.0992C117.07 22.48 116.867 23.1433 116.867 24.0892V29.1748H114.288V18.9667H116.867V20.5514Z" fill="white"/>
</svg>
